<svg width="212" height="36" viewBox="0 0 212 36" fill="none" xmlns="http://www.w3.org/2000/svg">
<path d="M20.373 1.17615L10.7656 18.2558L19.172 33.2006H31.0481L22.5082 17.1884H22.5079L31.8484 1.17615H20.373Z" fill="#2D82F6"/>
<path d="M19.5753 1.17615L9.96795 18.2558L15.8197 28.6589L13.1704 33.2006H8.6336L0.09375 18.2558L9.70108 1.17615H19.5753Z" fill="#2D82F6"/>
<path d="M19.1737 33.2006H31.0497L23.0196 18.144L16.75 28.8919L19.1737 33.2006Z" fill="#26F8DD"/>
<path d="M23.0202 18.1441L22.5105 17.1885L16.2266 27.9603L16.7506 28.892L23.0202 18.1441Z" fill="#20DABC"/>
<path d="M40.7129 28V7.11057H45.5965V15.7204L52.5408 7.11057H58.4971L50.1131 17.1036L58.7794 28H52.5973L45.5965 18.995V28H40.7129ZM66.3085 28.2823C64.6147 28.2823 63.1751 27.9247 61.9894 27.2096C60.8038 26.4945 59.8911 25.5441 59.2512 24.3585C58.6302 23.1728 58.3197 21.8931 58.3197 20.5193C58.3197 19.1455 58.6302 17.8658 59.2512 16.6802C59.8911 15.4946 60.8038 14.5442 61.9894 13.8291C63.1751 13.1139 64.6147 12.7564 66.3085 12.7564C68.021 12.7564 69.4701 13.1139 70.6557 13.8291C71.8414 14.5442 72.7447 15.4946 73.3657 16.6802C74.0056 17.8658 74.3255 19.1455 74.3255 20.5193C74.3255 21.8931 74.0056 23.1728 73.3657 24.3585C72.7447 25.5441 71.8414 26.4945 70.6557 27.2096C69.4701 27.9247 68.021 28.2823 66.3085 28.2823ZM66.3085 24.3867C67.3059 24.3867 68.0775 24.0103 68.6233 23.2575C69.1878 22.4859 69.4701 21.5732 69.4701 20.5193C69.4701 19.4654 69.1878 18.5621 68.6233 17.8093C68.0775 17.0378 67.3059 16.652 66.3085 16.652C65.3299 16.652 64.5583 17.0378 63.9937 17.8093C63.4291 18.5621 63.1468 19.4654 63.1468 20.5193C63.1468 21.5732 63.4291 22.4859 63.9937 23.2575C64.5583 24.0103 65.3299 24.3867 66.3085 24.3867ZM82.0989 28.2823C81.0074 28.2823 80.057 28.0659 79.2478 27.633C78.4385 27.1814 77.7611 26.5886 77.2153 25.8546C76.6695 25.1018 76.2649 24.2644 76.0014 23.3422C75.738 22.4201 75.6062 21.4791 75.6062 20.5193C75.6062 19.5595 75.738 18.6186 76.0014 17.6964C76.2649 16.7743 76.6695 15.9462 77.2153 15.2123C77.7611 14.4595 78.4385 13.8667 79.2478 13.4339C80.057 12.9822 81.0074 12.7564 82.0989 12.7564C83.0775 12.7564 83.8679 12.9163 84.4701 13.2363C85.0912 13.5562 85.5522 13.8855 85.8534 14.2243C86.1733 14.5442 86.3521 14.7418 86.3897 14.8171H86.6155V6.54599H91.4427V28H86.6155V26.2216H86.3897C86.3521 26.2969 86.1733 26.5039 85.8534 26.8426C85.5522 27.1814 85.0912 27.5107 84.4701 27.8306C83.8679 28.1317 83.0775 28.2823 82.0989 28.2823ZM83.6233 24.4149C84.3196 24.4149 84.8936 24.2267 85.3452 23.8503C85.8157 23.4551 86.1639 22.9658 86.3897 22.3824C86.6344 21.7802 86.7567 21.1592 86.7567 20.5193C86.7567 19.8795 86.6344 19.2678 86.3897 18.6844C86.1639 18.0822 85.8157 17.5929 85.3452 17.2165C84.8936 16.8213 84.3196 16.6237 83.6233 16.6237C82.9269 16.6237 82.3436 16.8213 81.8731 17.2165C81.4026 17.5929 81.0544 18.0822 80.8286 18.6844C80.6028 19.2678 80.4899 19.8795 80.4899 20.5193C80.4899 21.1592 80.6028 21.7802 80.8286 22.3824C81.0544 22.9658 81.4026 23.4551 81.8731 23.8503C82.3436 24.2267 82.9269 24.4149 83.6233 24.4149ZM100.905 28.2823C99.569 28.2823 98.4116 28.0659 97.433 27.633C96.4544 27.1814 95.6358 26.5886 94.9771 25.8546C94.3373 25.1018 93.8574 24.2644 93.5374 23.3422C93.2363 22.4201 93.0858 21.4697 93.0858 20.4911C93.0858 19.5501 93.2363 18.6186 93.5374 17.6964C93.8385 16.7743 94.2996 15.9462 94.9207 15.2123C95.5417 14.4595 96.3321 13.8667 97.2919 13.4339C98.2705 12.9822 99.4279 12.7564 100.764 12.7564C102.194 12.7564 103.446 13.0669 104.518 13.6879C105.61 14.2901 106.457 15.1841 107.059 16.3697C107.68 17.5365 107.991 18.9573 107.991 20.6322V21.7614H97.9412C97.9976 22.533 98.2705 23.2105 98.7598 23.7939C99.2679 24.3585 99.983 24.6408 100.905 24.6408C101.602 24.6408 102.128 24.5184 102.486 24.2738C102.862 24.0103 103.116 23.7468 103.248 23.4834C103.38 23.2199 103.446 23.0882 103.446 23.0882H107.878C107.878 23.0882 107.831 23.2669 107.737 23.6245C107.643 23.9633 107.464 24.3961 107.2 24.923C106.937 25.4312 106.551 25.9487 106.043 26.4756C105.535 26.9838 104.857 27.4166 104.01 27.7742C103.182 28.1129 102.147 28.2823 100.905 28.2823ZM97.9129 18.9667H103.361C103.323 18.0822 103.051 17.4141 102.542 16.9625C102.053 16.5108 101.432 16.285 100.679 16.285C99.9454 16.285 99.315 16.5108 98.788 16.9625C98.2799 17.4141 97.9882 18.0822 97.9129 18.9667ZM109.639 28V6.54599H114.466V18.8538L119.067 13.0387H124.431L118.841 19.8701L124.685 28H119.124L114.466 21.4509V28H109.639ZM132.735 28.2823C131.041 28.2823 129.601 27.9247 128.416 27.2096C127.23 26.4945 126.317 25.5441 125.677 24.3585C125.056 23.1728 124.746 21.8931 124.746 20.5193C124.746 19.1455 125.056 17.8658 125.677 16.6802C126.317 15.4946 127.23 14.5442 128.416 13.8291C129.601 13.1139 131.041 12.7564 132.735 12.7564C134.447 12.7564 135.896 13.1139 137.082 13.8291C138.268 14.5442 139.171 15.4946 139.792 16.6802C140.432 17.8658 140.752 19.1455 140.752 20.5193C140.752 21.8931 140.432 23.1728 139.792 24.3585C139.171 25.5441 138.268 26.4945 137.082 27.2096C135.896 27.9247 134.447 28.2823 132.735 28.2823ZM132.735 24.3867C133.732 24.3867 134.504 24.0103 135.05 23.2575C135.614 22.4859 135.896 21.5732 135.896 20.5193C135.896 19.4654 135.614 18.5621 135.05 17.8093C134.504 17.0378 133.732 16.652 132.735 16.652C131.756 16.652 130.985 17.0378 130.42 17.8093C129.855 18.5621 129.573 19.4654 129.573 20.5193C129.573 21.5732 129.855 22.4859 130.42 23.2575C130.985 24.0103 131.756 24.3867 132.735 24.3867ZM142.401 28V6.54599H147.229V28H142.401ZM156.69 28.2823C155.354 28.2823 154.197 28.0659 153.218 27.633C152.24 27.1814 151.421 26.5886 150.762 25.8546C150.123 25.1018 149.643 24.2644 149.323 23.3422C149.022 22.4201 148.871 21.4697 148.871 20.4911C148.871 19.5501 149.022 18.6186 149.323 17.6964C149.624 16.7743 150.085 15.9462 150.706 15.2123C151.327 14.4595 152.117 13.8667 153.077 13.4339C154.056 12.9822 155.213 12.7564 156.549 12.7564C157.98 12.7564 159.231 13.0669 160.304 13.6879C161.395 14.2901 162.242 15.1841 162.844 16.3697C163.465 17.5365 163.776 18.9573 163.776 20.6322V21.7614H153.726C153.783 22.533 154.056 23.2105 154.545 23.7939C155.053 24.3585 155.768 24.6408 156.69 24.6408C157.387 24.6408 157.914 24.5184 158.271 24.2738C158.648 24.0103 158.902 23.7468 159.033 23.4834C159.165 23.2199 159.231 23.0882 159.231 23.0882H163.663C163.663 23.0882 163.616 23.2669 163.522 23.6245C163.428 23.9633 163.249 24.3961 162.986 24.923C162.722 25.4312 162.336 25.9487 161.828 26.4756C161.32 26.9838 160.643 27.4166 159.796 27.7742C158.968 28.1129 157.933 28.2823 156.69 28.2823ZM153.698 18.9667H159.146C159.109 18.0822 158.836 17.4141 158.328 16.9625C157.838 16.5108 157.217 16.285 156.465 16.285C155.731 16.285 155.1 16.5108 154.573 16.9625C154.065 17.4141 153.773 18.0822 153.698 18.9667ZM165.424 28V6.54599H170.251V18.8538L174.852 13.0387H180.216L174.626 19.8701L180.47 28H174.909L170.251 21.4509V28H165.424ZM188.918 28.2823C187.639 28.2823 186.622 28.0847 185.87 27.6895C185.136 27.2943 184.599 26.805 184.261 26.2216C183.922 25.6194 183.705 25.0171 183.611 24.4149C183.517 23.7939 183.47 23.2669 183.47 22.8341V16.8778H180.986V13.0387H183.47V9.34066H188.297V13.0387H191.346V16.8778H188.297V22.693C188.297 23.2575 188.448 23.7092 188.749 24.0479C189.069 24.3679 189.605 24.5278 190.358 24.5278C190.678 24.5278 190.96 24.509 191.205 24.4714C191.449 24.4149 191.572 24.3867 191.572 24.3867V28C191.572 28 191.299 28.047 190.753 28.1411C190.226 28.2352 189.615 28.2823 188.918 28.2823ZM196.298 11.2602C195.488 11.2602 194.82 10.9968 194.293 10.4698C193.766 9.94288 193.503 9.32184 193.503 8.60671C193.503 7.85394 193.766 7.21408 194.293 6.68714C194.82 6.1602 195.488 5.89673 196.298 5.89673C197.107 5.89673 197.775 6.1602 198.302 6.68714C198.829 7.21408 199.092 7.85394 199.092 8.60671C199.092 9.32184 198.829 9.94288 198.302 10.4698C197.775 10.9968 197.107 11.2602 196.298 11.2602ZM193.87 28V13.0387H198.697V28H193.87ZM203.176 28V16.8778H200.833V13.0387H203.176V12.0789C203.176 11.5519 203.251 10.9591 203.402 10.3004C203.552 9.62295 203.825 8.98309 204.22 8.38088C204.616 7.75984 205.18 7.25172 205.914 6.85651C206.648 6.46131 207.608 6.26371 208.793 6.26371C209.414 6.26371 209.923 6.31075 210.318 6.40485C210.713 6.48013 210.911 6.51777 210.911 6.51777V9.84878C210.911 9.84878 210.807 9.83937 210.6 9.82055C210.412 9.78292 210.224 9.7641 210.036 9.7641C209.283 9.7641 208.756 9.97111 208.455 10.3851C208.154 10.7992 208.003 11.3637 208.003 12.0789V13.0387H210.882V16.8778H208.003V28H203.176Z" fill="#040234"/>
</svg>
